<svg xmlns="http://www.w3.org/2000/svg" x="0px" y="0px" width="100" height="100" viewBox="0 0 24 24">
<path d="M7,3C4.803,3,3,4.803,3,7v10c0,2.197,1.803,4,4,4h10c2.197,0,4-1.803,4-4V7c0-2.197-1.803-4-4-4H7z M7,5h10	c1.117,0,2,0.883,2,2v10c0,1.117-0.883,2-2,2H7c-1.117,0-2-0.883-2-2V7C5,5.883,5.883,5,7,5z"></path><path d="M21,7v10c0,2.2-1.8,4-4,4H7c-2.2,0-4-1.8-4-4V7c0-2.2,1.8-4,4-4h10C19.2,3,21,4.8,21,7z" opacity=".3"></path><path d="M15.757,6.311C16.389,6.153,17,6.63,17,7.281V15h-0.01C17,15.04,17,15.08,17,15.12c0,1.04-1.12,1.88-2.5,1.88	S12,16.04,12,15c0-1.03,1-2,2-2c0.17,0,1,0,1,0V9.5l-4,1V16h-0.01C11,16.04,11,16.08,11,16.12C11,17.16,9.88,18,8.5,18S6,17.04,6,16	c0-1.03,1-2,2-2c0.17,0,1,0,1,0c0-1,0-5.219,0-5.219c0-0.459,0.312-0.859,0.757-0.97L15.757,6.311z"></path>
</svg>